<?xml version="1.0" encoding="UTF-8" standalone="no"?>
<svg
   xmlns:dc="http://purl.org/dc/elements/1.1/"
   xmlns:cc="http://creativecommons.org/ns#"
   xmlns:rdf="http://www.w3.org/1999/02/22-rdf-syntax-ns#"
   xmlns:svg="http://www.w3.org/2000/svg"
   xmlns="http://www.w3.org/2000/svg"
   id="svg8"
   version="1.1"
   viewBox="0 0 210 297"
   height="297mm"
   width="210mm">
  <defs
     id="defs2" />
  <metadata
     id="metadata5">
    <rdf:RDF>
      <cc:Work
         rdf:about="">
        <dc:format>image/svg+xml</dc:format>
        <dc:type
           rdf:resource="http://purl.org/dc/dcmitype/StillImage" />
        <dc:title></dc:title>
      </cc:Work>
    </rdf:RDF>
  </metadata>
  <g
     id="layer1">
    <ellipse
       ry="83.905518"
       rx="84.283493"
       cy="97.517845"
       cx="103.18748"
       id="path956"
       style="opacity:0.997;fill:#4ec1e0;fill-opacity:1;stroke:#000000;stroke-width:0.210393;stroke-linecap:round;stroke-linejoin:round" />
    <ellipse
       cx="147.41071"
       cy="67.279755"
       rx="17.342577"
       ry="21.878292"
       id="path972"
       style="opacity:0.997;fill:#bcc0c1;fill-opacity:1;stroke:#000000;stroke-width:0.288652;stroke-linecap:round;stroke-linejoin:round" />
    <g
       transform="matrix(0.27817072,0,0,0.27817073,18.067262,13.531403)"
       id="g906">
      <g
         id="g845">
	<path
   d="m 45.786,171.764 h 42.865 c 4.967,0 8.994,-4.027 8.994,-8.994 0,-4.967 -4.027,-8.994 -8.994,-8.994 H 61.465 c 3.557,-5.711 7.337,-11.322 11.308,-16.797 h 140.894 c 4.967,0 8.994,-4.027 8.994,-8.994 0,-4.967 -4.027,-8.994 -8.994,-8.994 H 68.236 c -2.831,0 -5.496,1.333 -7.195,3.598 -8.578,11.441 -16.363,23.504 -23.138,35.856 -1.529,2.786 -1.473,6.172 0.144,8.907 1.62,2.734 4.561,4.412 7.739,4.412 z"
   id="path833" />

	<path
   d="m 17.557,244.009 h 129.962 c 4.967,0 8.994,-4.027 8.994,-8.994 0,-4.967 -4.027,-8.994 -8.994,-8.994 H 29.25 c 1.626,-5.639 3.438,-11.25 5.426,-16.797 h 53.977 c 4.967,0 8.994,-4.027 8.994,-8.994 0,-4.967 -4.027,-8.994 -8.994,-8.994 H 28.422 c -3.724,0 -7.063,2.296 -8.396,5.77 -4.504,11.729 -8.275,23.804 -11.207,35.885 -0.652,2.68 -0.038,5.514 1.668,7.681 1.705,2.171 4.311,3.437 7.07,3.437 z"
   id="path835" />

	<path
   d="m 170.935,411.612 c 0,-4.967 -4.027,-8.994 -8.994,-8.994 H 34.606 c -1.965,-5.514 -3.769,-11.126 -5.392,-16.797 h 245.107 c 4.967,0 8.994,-4.027 8.994,-8.994 0,-4.967 -4.027,-8.994 -8.994,-8.994 H 17.53 c -2.759,0 -5.365,1.266 -7.072,3.434 -1.704,2.17 -2.321,5.001 -1.668,7.681 2.961,12.208 6.712,24.278 11.148,35.876 1.333,3.483 4.673,5.781 8.401,5.781 h 133.6 c 4.969,10e-4 8.996,-4.026 8.996,-8.993 z"
   id="path837" />

	<path
   d="m 277.961,483.857 c 0,-4.967 -4.027,-8.994 -8.994,-8.994 H 72.652 c -3.973,-5.487 -7.744,-11.099 -11.29,-16.797 h 27.293 c 4.967,0 8.994,-4.027 8.994,-8.994 0,-4.967 -4.027,-8.994 -8.994,-8.994 H 45.678 c -3.177,0 -6.121,1.677 -7.74,4.412 -1.619,2.734 -1.673,6.121 -0.144,8.907 6.746,12.302 14.519,24.361 23.102,35.845 1.7,2.271 4.367,3.609 7.204,3.609 h 200.866 c 4.968,0 8.995,-4.027 8.995,-8.994 z"
   id="path839" />

	<path
   d="m 306.001,0.001 c -78.707,0 -153.495,29.832 -210.589,83.998 -2.671,2.534 -3.528,6.438 -2.165,9.858 1.365,3.42 4.675,5.662 8.356,5.662 h 80.702 c 4.967,0 8.994,-4.027 8.994,-8.994 0,-4.967 -4.027,-8.994 -8.994,-8.994 H 125.533 C 176.583,40.402 239.822,17.99 306.002,17.99 c 155.8,0 283.088,124.356 287.855,279.02 H 18.146 c 0.162,-5.197 0.447,-10.388 0.888,-15.542 h 262.421 c 4.967,0 8.994,-4.027 8.994,-8.994 0,-4.967 -4.027,-8.994 -8.994,-8.994 H 10.894 c -4.571,0 -8.416,3.431 -8.938,7.973 C 0.659,282.826 0,294.449 0,306 c 0,11.414 0.65,22.976 1.929,34.372 0.51,4.549 4.358,7.989 8.938,7.989 h 195.515 c 4.967,0 8.994,-4.027 8.994,-8.994 0,-4.967 -4.027,-8.994 -8.994,-8.994 H 19.021 c -0.432,-5.118 -0.713,-10.251 -0.875,-15.374 h 575.71 c -0.16,5.16 -0.459,10.285 -0.888,15.374 H 482.133 c -4.967,0 -8.994,4.027 -8.994,8.994 0,4.967 4.027,8.994 8.994,8.994 h 108.753 c -0.971,6.566 -2.172,13.055 -3.582,19.471 h -50.321 c -4.967,0 -8.994,4.027 -8.994,8.994 0,4.967 4.027,8.994 8.994,8.994 h 45.763 c -5.478,18.958 -12.86,37.113 -21.917,54.256 H 416.575 c -4.967,0 -8.994,4.027 -8.994,8.994 0,4.967 4.027,8.994 8.994,8.994 h 133.906 c -50.912,81.56 -141.459,135.946 -244.484,135.946 -66.3,0 -129.609,-22.463 -180.669,-63.702 h 49.163 c 4.967,0 8.994,-4.027 8.994,-8.994 0,-4.967 -4.027,-8.994 -8.994,-8.994 h -73.05 c -3.679,0 -6.986,2.242 -8.354,5.657 -1.363,3.418 -0.513,7.319 2.156,9.856 C 152.33,582.109 227.177,612 306.001,612 474.728,611.999 612,474.727 612,306 612,137.273 474.728,0.001 306.001,0.001 Z"
   id="path841" />

	<path
   d="m 473.948,280.009 c 6.474,0 12.826,-1.057 18.881,-3.139 37.252,-12.808 54.36,-61.622 38.134,-108.816 -13.258,-38.561 -45.379,-65.495 -78.107,-65.495 -6.471,0 -12.824,1.055 -18.879,3.137 -37.252,12.808 -54.36,61.623 -38.134,108.816 13.26,38.563 45.379,65.497 78.105,65.497 z m -34.12,-157.3 c 4.169,-1.435 8.554,-2.159 13.031,-2.159 25.171,0 50.294,21.939 61.099,53.354 12.999,37.812 0.897,76.373 -26.974,85.957 -4.169,1.435 -8.554,2.161 -13.033,2.161 -25.168,0 -50.292,-21.942 -61.096,-53.357 -13.002,-37.814 -0.901,-76.375 26.973,-85.956 z m 38.294,63.515 c 3.653,10.625 0.014,21.507 -8.127,24.306 -8.141,2.799 -17.702,-3.546 -21.354,-14.171 -3.653,-10.625 -0.014,-21.507 8.127,-24.306 8.141,-2.798 17.701,3.546 21.354,14.171 z"
   id="path843" />

</g>
      <g
         id="g847">
</g>
      <g
         id="g849">
</g>
      <g
         id="g851">
</g>
      <g
         id="g853">
</g>
      <g
         id="g855">
</g>
      <g
         id="g857">
</g>
      <g
         id="g859">
</g>
      <g
         id="g861">
</g>
      <g
         id="g863">
</g>
      <g
         id="g865">
</g>
      <g
         id="g867">
</g>
      <g
         id="g869">
</g>
      <g
         id="g871">
</g>
      <g
         id="g873">
</g>
      <g
         id="g875">
</g>
    </g>
  </g>
</svg>
